<?xml version="1.0" encoding="UTF-8" standalone="no"?>
<!-- Created with Inkscape (http://www.inkscape.org/) -->

<svg
   xmlns:dc="http://purl.org/dc/elements/1.1/"
   xmlns:cc="http://creativecommons.org/ns#"
   xmlns:rdf="http://www.w3.org/1999/02/22-rdf-syntax-ns#"
   xmlns:svg="http://www.w3.org/2000/svg"
   xmlns="http://www.w3.org/2000/svg"
   xmlns:sodipodi="http://sodipodi.sourceforge.net/DTD/sodipodi-0.dtd"
   xmlns:inkscape="http://www.inkscape.org/namespaces/inkscape"
   version="1.1"
   id="svg2"
   xml:space="preserve"
   width="128"
   height="128"
   viewBox="0 0 128 128"
   sodipodi:docname="icon_monero.svg"
   inkscape:version="0.92+devel unknown"
   inkscape:export-filename="/home/simsu/Other/projects/GitHub/CryptoDonate/src/img/icon_monero.png"
   inkscape:export-xdpi="24.0002"
   inkscape:export-ydpi="24.0002"><metadata
     id="metadata8"><rdf:RDF><cc:Work
         rdf:about=""><dc:format>image/svg+xml</dc:format><dc:type
           rdf:resource="http://purl.org/dc/dcmitype/StillImage" /><dc:title></dc:title></cc:Work></rdf:RDF></metadata><defs
     id="defs6"><clipPath
       clipPathUnits="userSpaceOnUse"
       id="clipPath18"><path
         d="M 0,841.889 H 595.275 V 0 H 0 Z"
         id="path16"
         inkscape:connector-curvature="0" /></clipPath></defs><sodipodi:namedview
     pagecolor="#ffffff"
     bordercolor="#666666"
     inkscape:document-rotation="0"
     borderopacity="1"
     objecttolerance="10"
     gridtolerance="10"
     guidetolerance="10"
     inkscape:pageopacity="0"
     inkscape:pageshadow="2"
     inkscape:window-width="1327"
     inkscape:window-height="717"
     id="namedview4"
     showgrid="false"
     inkscape:zoom="1.9527515"
     inkscape:cx="36.974995"
     inkscape:cy="49.140007"
     inkscape:window-x="41"
     inkscape:window-y="27"
     inkscape:window-maximized="1"
     inkscape:current-layer="g10" /><g
     id="g10"
     inkscape:groupmode="layer"
     inkscape:label="Monero-Logo"
     transform="matrix(1.3333333,0,0,-1.3333333,0,128.00002)"><g
       id="g962"
       transform="matrix(1.3006897,0,0,1.3006897,-203.42436,-625.25993)"><g
         transform="translate(193.3003,554.5205)"
         id="g20"><path
           inkscape:connector-curvature="0"
           id="path22"
           style="fill:#ff6600;fill-opacity:1;fill-rule:nonzero;stroke:none"
           d="m 0,0 c -20.377,0 -36.903,-16.524 -36.903,-36.902 0,-4.074 0.66,-7.992 1.88,-11.657 h 11.036 V -17.51 L 0,-41.497 23.987,-17.51 v -31.049 h 11.037 c 1.22,3.665 1.88,7.583 1.88,11.657 C 36.904,-16.524 20.378,0 0,0" /></g><g
         transform="translate(187.7847,507.5088)"
         id="g24"><path
           inkscape:connector-curvature="0"
           id="path26"
           style="fill:#4c4c4c;fill-opacity:1;fill-rule:nonzero;stroke:none"
           d="M 0,0 -10.468,10.469 V -9.068 h -4.002 -4.002 -7.546 c 6.478,-10.628 18.178,-17.726 31.533,-17.726 13.355,0 25.056,7.098 31.533,17.726 H 29.501 22.344 21.499 V 10.469 L 11.03,0 5.515,-5.515 Z" /></g></g></g></svg>