<?xml version="1.0" encoding="UTF-8" standalone="no"?>
<svg
   xmlns:dc="http://purl.org/dc/elements/1.1/"
   xmlns:cc="http://creativecommons.org/ns#"
   xmlns:rdf="http://www.w3.org/1999/02/22-rdf-syntax-ns#"
   xmlns:svg="http://www.w3.org/2000/svg"
   xmlns="http://www.w3.org/2000/svg"
   xmlns:sodipodi="http://sodipodi.sourceforge.net/DTD/sodipodi-0.dtd"
   xmlns:inkscape="http://www.inkscape.org/namespaces/inkscape"
   enable-background="new 0 0 64 64"
   height="64px"
   id="Layer_1"
   version="1.1"
   viewBox="0 0 64 64"
   width="64px"
   xml:space="preserve"
   sodipodi:docname="icon_bitcoin.svg"
   inkscape:version="0.92+devel unknown"
   inkscape:export-filename="/home/simsu/Other/projects/GitHub/CryptoDonate/src/img/icon_bitcoin.png"
   inkscape:export-xdpi="48"
   inkscape:export-ydpi="48"><metadata
     id="metadata103"><rdf:RDF><cc:Work
         rdf:about=""><dc:format>image/svg+xml</dc:format><dc:type
           rdf:resource="http://purl.org/dc/dcmitype/StillImage" /><dc:title /></cc:Work></rdf:RDF></metadata><defs
     id="defs101" /><sodipodi:namedview
     pagecolor="#ffffff"
     bordercolor="#666666"
     inkscape:document-rotation="0"
     borderopacity="1"
     objecttolerance="10"
     gridtolerance="10"
     guidetolerance="10"
     inkscape:pageopacity="0"
     inkscape:pageshadow="2"
     inkscape:window-width="1327"
     inkscape:window-height="717"
     id="namedview99"
     showgrid="false"
     inkscape:zoom="6.0546018"
     inkscape:cx="31.396295"
     inkscape:cy="31.66894"
     inkscape:window-x="41"
     inkscape:window-y="27"
     inkscape:window-maximized="1"
     inkscape:current-layer="Layer_1" /><g
     id="g1019"
     transform="matrix(1.3323623,0,0,1.3325234,-10.635594,-1.1837039)"><g
       id="g32"><g
         id="g30"><g
           id="g4"><path
             inkscape:connector-curvature="0"
             id="path2"
             fill="#ED6C0C"
             d="M 29.9,25.2 28.5,31 c 1.8,0.4 7.3,2.2 8.1,-1.1 0.8,-3.4 -4.9,-4.2 -6.7,-4.7 z" /></g><g
           id="g8"><path
             inkscape:connector-curvature="0"
             id="path6"
             fill="#E05A00"
             d="m 36.6,30 c 0.9,-3.4 -4.9,-4.3 -6.7,-4.7 L 28.5,31" /></g><g
           id="g12"><path
             inkscape:connector-curvature="0"
             id="path10"
             fill="#ED6C0C"
             d="m 31.9,17.3 -1.3,5.3 c 1.5,0.4 6.1,1.9 6.8,-1.1 0.7,-3.1 -4,-3.8 -5.5,-4.2 z" /></g><g
           id="g16"><path
             inkscape:connector-curvature="0"
             id="path14"
             fill="#E05A00"
             d="m 37.4,21.5 c 0.8,-3.1 -4,-3.8 -5.5,-4.2 l -1.3,5.3" /></g><g
           id="g20"><path
             inkscape:connector-curvature="0"
             id="path18"
             fill="#FFB600"
             d="M 37.8,1.6 C 24.9,-1.6 11.9,6.3 8.7,19.1 5.5,32 13.3,45 26.2,48.2 39.1,51.4 52.1,43.6 55.3,30.7 58.5,17.9 50.7,4.9 37.8,1.6 Z m 4.8,19.9 c -0.3,2.3 -1.6,3.5 -3.4,3.9 2.4,1.2 3.6,3.1 2.4,6.4 -1.4,4.1 -4.8,4.4 -9.3,3.6 L 31.2,39.8 28.6,39 29.7,34.7 C 29,34.5 28.3,34.3 27.6,34.2 L 26.5,38.5 23.9,37.8 25,33.4 C 24.4,33.2 23.8,33.1 23.1,32.9 L 19.7,32 21,29 c 0,0 1.9,0.5 1.9,0.5 0.7,0.2 1.1,-0.3 1.2,-0.6 L 25.8,22 c 0.1,0 0.2,0 0.3,0.1 C 26,22.1 25.9,22 25.8,22 L 27,17.1 c 0,-0.6 -0.2,-1.3 -1.2,-1.5 0,0 -1.9,-0.5 -1.9,-0.5 l 0.7,-2.8 3.6,0.9 v 0 c 0.5,0.1 1.1,0.3 1.7,0.4 L 31,9.3 33.6,10 32.5,14.2 c 0.7,0.2 1.4,0.3 2.1,0.5 l 1,-4.2 2.6,0.7 -1.1,4.3 c 3.5,1.1 6,2.8 5.5,6 z" /></g><g
           id="g24"><path
             inkscape:connector-curvature="0"
             id="path22"
             fill="#F6921E"
             d="M 8.7,19.1 C 5.5,32 13.3,45 26.2,48.2 39.1,51.4 52.1,43.6 55.3,30.7 58.5,17.8 50.7,4.8 37.8,1.6 m 4.8,19.9 c -0.3,2.3 -1.6,3.5 -3.4,3.9 2.4,1.2 3.6,3.1 2.4,6.4 -1.4,4.1 -4.8,4.4 -9.3,3.6 L 31.2,39.8 28.6,39 29.7,34.7 C 29,34.5 28.3,34.3 27.6,34.2 L 26.5,38.5 23.9,37.8 25,33.4 C 24.4,33.2 23.8,33.1 23.1,32.9 L 19.7,32 21,29 c 0,0 1.9,0.5 1.9,0.5 0.7,0.2 1.1,-0.3 1.2,-0.6 L 25.8,22 c 0.1,0 0.2,0 0.3,0.1 C 26,22.1 25.9,22 25.8,22 L 27,17.1 c 0,-0.6 -0.2,-1.3 -1.2,-1.5 0,0 -1.9,-0.5 -1.9,-0.5 l 0.7,-2.8 3.6,0.9 v 0 c 0.5,0.1 1.1,0.3 1.7,0.4 L 31,9.3 33.6,10 32.5,14.2 c 0.7,0.2 1.4,0.3 2.1,0.5 l 1,-4.2 2.6,0.7 -1.1,4.3 c 3.5,1.1 6,2.8 5.5,6 z" /></g><g
           id="g28"><path
             inkscape:connector-curvature="0"
             id="path26"
             fill="#D85107"
             d="m 55.1,31.6 -13,-13 c 0.5,0.8 0.8,1.8 0.6,3 -0.3,2.3 -1.6,3.5 -3.4,3.9 2.4,1.2 3.6,3.1 2.4,6.4 -1.4,4.1 -4.8,4.4 -9.3,3.6 L 31.3,39.9 28.6,39 29.7,34.7 C 29,34.5 28.3,34.3 27.6,34.2 l -1.1,4.3 -0.6,-0.2 10.2,10.2 c 8.8,-1.5 16.4,-7.9 19,-16.9 z" /></g></g></g><g
       id="g74"><g
         id="g68"><path
           d="m 19.7,32.1 v 0 l 4.5,4.5 0.8,-3.2 c -0.6,-0.2 -1.2,-0.3 -1.9,-0.5 z"
           fill="#E26600"
           id="path66"
           inkscape:connector-curvature="0" /></g><g
         id="g72"><path
           d="m 37.7,14.2 v 0 l -0.4,1.3 c 1.2,0.4 2.3,0.9 3.2,1.5 z"
           fill="#E26600"
           id="path70"
           inkscape:connector-curvature="0" /></g></g><g
       id="g80"><g
         id="g78"><path
           d="m 33.7,10 v 0 l -1.1,4.2 c 0.7,0.2 1.4,0.3 2.1,0.5 l 0.7,-3 z"
           fill="#ED6C0C"
           id="path76"
           inkscape:connector-curvature="0" /></g></g><g
       id="g84"><path
         d="m 38.4,11.1 v 0 l -1.1,4.3 0.1,0.1 c 3,1 5.3,2.6 5.3,5.3 l 12,12 c 0.2,-0.7 0.4,-1.4 0.6,-2 0.2,-0.8 0.3,-1.5 0.4,-2.3 z"
         fill="#ED6C0C"
         id="path82"
         inkscape:connector-curvature="0" /></g><g
       id="g88"><path
         d="m 40.7,47.3 -9.1,-9.1 -0.4,1.5 -2.6,-0.7 0.8,-3.1 -1.8,-1.8 c 0,0 0,0 0,0 l -1.1,4.3 -2.6,-0.7 v -0.1 l -0.1,0.1 10.9,10.9 c 2.1,-0.1 4.1,-0.6 6,-1.3 z"
         fill="#ED6C0C"
         id="path86"
         inkscape:connector-curvature="0" /></g><g
       id="g94"><g
         id="g92"><path
           d="M 43.2,46.1 32.4,35.3 c 0,0 0,0 -0.1,0 l -1.1,4.4 -2.5,-0.6 9.1,9.1 c 1.9,-0.5 3.7,-1.2 5.4,-2.1 z"
           fill="#E05A00"
           id="path90"
           inkscape:connector-curvature="0" /></g></g></g></svg>